<?xml version="1.0" standalone="no"?>
<!DOCTYPE svg PUBLIC "-//W3C//DTD SVG 20010904//EN"
 "http://www.w3.org/TR/2001/REC-SVG-20010904/DTD/svg10.dtd">
<svg version="1.0" xmlns="http://www.w3.org/2000/svg"
 width="256.000000pt" height="256.000000pt" viewBox="0 0 256.000000 256.000000"
 preserveAspectRatio="xMidYMid meet">

<g transform="translate(0.000000,256.000000) scale(0.100000,-0.100000)"
fill="#000000" stroke="none">
<path d="M0 1280 l0 -1280 1280 0 1280 0 0 1280 0 1280 -1280 0 -1280 0 0
-1280z m1155 300 c66 -93 122 -169 125 -169 3 0 59 76 125 169 l119 170 98 0
c54 0 98 -3 98 -6 0 -4 -72 -108 -160 -231 -88 -123 -160 -227 -160 -232 0 -4
72 -108 160 -232 88 -123 160 -227 160 -231 0 -5 -44 -8 -98 -8 l-99 0 -119
170 c-65 93 -121 169 -124 170 -3 0 -59 -77 -125 -170 l-119 -170 -104 0 c-80
0 -101 3 -96 13 5 6 79 110 166 231 87 120 158 222 158 226 0 4 -72 108 -160
230 -88 122 -160 227 -160 231 0 5 44 9 98 9 l98 0 119 -170z"/>
</g>
</svg>
